<?xml version="1.0" encoding="UTF-8" standalone="no" ?>
<!DOCTYPE svg PUBLIC "-//W3C//DTD SVG 1.1//EN" "http://www.w3.org/Graphics/SVG/1.1/DTD/svg11.dtd">
<svg xmlns="http://www.w3.org/2000/svg" xmlns:xlink="http://www.w3.org/1999/xlink" version="1.1" width="400" height="400" viewBox="0 0 400 400" xml:space="preserve">
<desc>Created with Fabric.js 3.6.2</desc>
<defs>
</defs>
<g transform="matrix(1.43 0 0 1.43 191.51 147.9)" id="Layer_1"  >
<path style="stroke: none; stroke-width: 1; stroke-dasharray: none; stroke-linecap: butt; stroke-dashoffset: 0; stroke-linejoin: miter; stroke-miterlimit: 4; fill: rgb(255,71,67); fill-rule: nonzero; opacity: 1;"  transform=" translate(-64.06, -33.53)" d="M 71.402 8.477 c -18.663 0 -35.302 8.184 -46.575 21.16 c -3.436 3.958 -6.379 8.355 -8.718 13.109 L 36.841 58.58 c 2.402 -7.29 7.042 -13.549 13.11 -17.974 c 6.005 -4.376 13.411 -6.961 21.451 -6.961 c 8.682 0 16.522 3.077 22.683 8.11 l 17.924 -17.898 C 101.086 14.349 87.083 8.477 71.402 8.477 z" stroke-linecap="round" />
</g>
<g transform="matrix(1.43 0 0 1.43 190.44 154.48)" id="Layer_1"  >
<path style="stroke: none; stroke-width: 1; stroke-dasharray: none; stroke-linecap: butt; stroke-dashoffset: 0; stroke-linejoin: miter; stroke-miterlimit: 4; fill: rgb(227,68,58); fill-rule: nonzero; opacity: 1;"  transform=" translate(-63.31, -38.14)" d="M 24.827 38.853 c -1.831 2.109 -3.51 4.352 -5.044 6.698 L 36.841 58.58 c 2.402 -7.29 7.042 -13.549 13.11 -17.974 c 6.005 -4.376 13.411 -6.961 21.451 -6.961 c 8.682 0 16.522 3.077 22.683 8.11 l 12.748 -12.73 C 96.8 21.934 84.709 17.693 71.402 17.693 C 52.739 17.693 36.101 25.877 24.827 38.853 z" stroke-linecap="round" />
</g>
<g transform="matrix(1.43 0 0 1.43 133.31 199.99)" id="Layer_1"  >
<path style="stroke: none; stroke-width: 1; stroke-dasharray: none; stroke-linecap: butt; stroke-dashoffset: 0; stroke-linejoin: miter; stroke-miterlimit: 4; fill: rgb(247,185,43); fill-rule: nonzero; opacity: 1;"  transform=" translate(-23.31, -69.99)" d="M 34.996 70 c 0 -0.567 0.04 -1.125 0.066 -1.686 c 0.161 -3.388 0.765 -6.652 1.778 -9.734 L 16.109 42.745 c -3.812 7.732 -6.025 16.392 -6.271 25.569 C 9.821 68.877 9.789 69.436 9.789 70 c 0 0.566 0.032 1.126 0.049 1.69 c 0.246 9.166 2.459 17.822 6.261 25.545 l 20.725 -15.863 c -1.004 -3.065 -1.604 -6.315 -1.761 -9.682 C 35.036 71.126 34.996 70.569 34.996 70 z" stroke-linecap="round" />
</g>
<g transform="matrix(1.43 0 0 1.43 137.81 199.99)" id="Layer_1"  >
<path style="stroke: none; stroke-width: 1; stroke-dasharray: none; stroke-linecap: butt; stroke-dashoffset: 0; stroke-linejoin: miter; stroke-miterlimit: 4; fill: rgb(247,185,43); fill-rule: nonzero; opacity: 1;"  transform=" translate(-26.47, -69.99)" d="M 16.099 97.235 l 20.725 -15.863 c -1.004 -3.065 -1.604 -6.315 -1.761 -9.682 c -0.026 -0.564 -0.066 -1.121 -0.066 -1.69 c 0 -0.567 0.04 -1.125 0.066 -1.686 c 0.161 -3.388 0.765 -6.652 1.778 -9.734 L 16.109 42.745" stroke-linecap="round" />
</g>
<g transform="matrix(1.43 0 0 1.43 113.98 200)" id="Layer_1"  >
<path style="stroke: none; stroke-width: 1; stroke-dasharray: none; stroke-linecap: butt; stroke-dashoffset: 0; stroke-linejoin: miter; stroke-miterlimit: 4; fill: rgb(247,185,43); fill-rule: nonzero; opacity: 1;"  transform=" translate(-9.79, -70)" d="M 9.789 70" stroke-linecap="round" />
</g>
<g transform="matrix(1.43 0 0 1.43 191.18 252.1)" id="Layer_1"  >
<path style="stroke: none; stroke-width: 1; stroke-dasharray: none; stroke-linecap: butt; stroke-dashoffset: 0; stroke-linejoin: miter; stroke-miterlimit: 4; fill: rgb(89,201,110); fill-rule: nonzero; opacity: 1;"  transform=" translate(-63.83, -106.47)" d="M 91.863 100.977 c -5.555 3.498 -12.55 5.378 -20.461 5.378 c -4.635 0 -9.045 -0.88 -13.111 -2.445 c -2.994 -1.153 -5.791 -2.693 -8.34 -4.551 c -6.065 -4.416 -10.708 -10.653 -13.11 -17.938 L 16.109 97.255 c 2.337 4.746 5.275 9.138 8.704 13.091 c 11.272 12.987 27.92 21.178 46.589 21.178 c 5.645 0 11.193 -0.752 16.493 -2.223 c 8.809 -2.445 16.927 -6.868 23.648 -13.109 L 91.863 100.977 z" stroke-linecap="round" />
</g>
<g transform="matrix(1.43 0 0 1.43 191.18 263.41)" id="Layer_1"  >
<path style="stroke: none; stroke-width: 1; stroke-dasharray: none; stroke-linecap: butt; stroke-dashoffset: 0; stroke-linejoin: miter; stroke-miterlimit: 4; fill: rgb(64,165,87); fill-rule: nonzero; opacity: 1;"  transform=" translate(-63.83, -114.39)" d="M 16.109 97.255 c 2.337 4.746 5.275 9.138 8.704 13.091 c 11.272 12.987 27.92 21.178 46.589 21.178 c 5.645 0 11.193 -0.752 16.493 -2.223 c 8.809 -2.445 16.927 -6.868 23.648 -13.109 l -19.681 -15.215 c -5.555 3.498 -12.55 5.378 -20.461 5.378 c -4.635 0 -9.045 -0.88 -13.111 -2.445 c -2.994 -1.153 -5.791 -2.693 -8.34 -4.551" stroke-linecap="round" />
</g>
<g transform="matrix(1.43 0 0 1.43 244.01 225)" id="Layer_1"  >
<path style="stroke: none; stroke-width: 1; stroke-dasharray: none; stroke-linecap: butt; stroke-dashoffset: 0; stroke-linejoin: miter; stroke-miterlimit: 4; fill: rgb(0,151,226); fill-rule: nonzero; opacity: 1;"  transform=" translate(-100.81, -87.5)" d="M 128.811 58.813 h -3.693 H 71.402 v 9.5 v 3.376 v 10.896 h 33.045 c -1.652 8.102 -6.15 14.334 -12.584 18.391 l 19.681 15.215 c 5.398 -5.011 9.882 -11.205 13.106 -18.479 c 3.537 -7.966 5.561 -17.229 5.561 -27.712 C 130.211 66.365 129.652 62.45 128.811 58.813 z" stroke-linecap="round" />
</g>
<g transform="matrix(1.43 0 0 1.43 272.68 225)" id="Layer_1"  >
<path style="stroke: none; stroke-width: 1; stroke-dasharray: none; stroke-linecap: butt; stroke-dashoffset: 0; stroke-linejoin: miter; stroke-miterlimit: 4; fill: rgb(64,135,237); fill-rule: nonzero; opacity: 1;"  transform=" translate(-120.88, -87.5)" d="M 111.544 116.191 c 5.398 -5.011 9.882 -11.205 13.106 -18.479 c 3.537 -7.966 5.561 -17.229 5.561 -27.712 c 0 -3.635 -0.559 -7.55 -1.4 -11.187 h -3.693" stroke-linecap="round" />
</g>
<g transform="matrix(1.43 0 0 1.43 225.61 207.79)" id="Layer_1"  >
<polyline style="stroke: none; stroke-width: 1; stroke-dasharray: none; stroke-linecap: butt; stroke-dashoffset: 0; stroke-linejoin: miter; stroke-miterlimit: 4; fill: rgb(64,135,237); fill-rule: nonzero; opacity: 1;"  points="-16.52,-7.14 -16.52,-3.76 -16.52,7.14 16.52,7.14 " />
</g>
<g transform="matrix(1.43 0 0 1.43 187 175.51)" id="Layer_1"  >
<path style="stroke: rgb(51,54,58); stroke-width: 3; stroke-dasharray: none; stroke-linecap: round; stroke-dashoffset: 0; stroke-linejoin: round; stroke-miterlimit: 10; fill: none; fill-rule: nonzero; opacity: 1;"  transform=" translate(-60.9, -52.86)" d="M 35.062 71.69 c -0.026 -0.564 -0.066 -1.121 -0.066 -1.69 c 0 -0.567 0.04 -1.125 0.066 -1.686 c 0.161 -3.388 0.765 -6.652 1.778 -9.734 c 2.402 -7.29 7.042 -13.549 13.11 -17.974 c 6.005 -4.376 13.411 -6.961 21.451 -6.961 c 8.682 0 16.522 3.077 22.683 8.11 l 17.924 -17.898 c -10.923 -9.507 -24.926 -15.38 -40.606 -15.38 c -18.663 0 -35.302 8.184 -46.575 21.16 c -3.436 3.958 -6.379 8.355 -8.718 13.109 c -3.812 7.732 -6.025 16.392 -6.271 25.569 C 9.821 68.877 9.789 69.436 9.789 70 c 0 0.566 0.032 1.126 0.049 1.69 c 0.246 9.166 2.459 17.822 6.261 25.545 l 20.725 -15.863 C 35.819 78.307 35.22 75.057 35.062 71.69 z" stroke-linecap="round" />
</g>
<g transform="matrix(1.43 0 0 1.43 204.51 235.95)" id="Layer_1"  >
<path style="stroke: rgb(51,54,58); stroke-width: 3; stroke-dasharray: none; stroke-linecap: round; stroke-dashoffset: 0; stroke-linejoin: round; stroke-miterlimit: 10; fill: none; fill-rule: nonzero; opacity: 1;"  transform=" translate(-73.16, -95.17)" d="M 128.811 58.813 h -3.693 H 71.402 v 9.5 v 3.376 v 10.896 h 33.045 c -1.652 8.102 -6.15 14.334 -12.584 18.391 c -5.555 3.498 -12.55 5.378 -20.461 5.378 c -4.635 0 -9.045 -0.88 -13.111 -2.445 c -2.994 -1.153 -5.791 -2.693 -8.34 -4.551 c -6.065 -4.416 -10.708 -10.653 -13.11 -17.938 L 16.109 97.255 c 2.337 4.746 5.275 9.138 8.704 13.091 c 11.272 12.987 27.92 21.178 46.589 21.178 c 5.645 0 11.193 -0.752 16.493 -2.223 c 8.809 -2.445 16.927 -6.868 23.648 -13.109 c 5.398 -5.011 9.882 -11.205 13.106 -18.479 c 3.537 -7.966 5.561 -17.229 5.561 -27.712 C 130.211 66.365 129.652 62.45 128.811 58.813 z" stroke-linecap="round" />
</g>
<g transform="matrix(1.43 0 0 1.43 137.82 172.38)" id="Layer_1"  >
<line style="stroke: rgb(51,54,58); stroke-width: 3; stroke-dasharray: none; stroke-linecap: round; stroke-dashoffset: 0; stroke-linejoin: round; stroke-miterlimit: 10; fill: none; fill-rule: nonzero; opacity: 1;"  x1="10.366" y1="7.9175" x2="-10.366" y2="-7.9175" />
</g>
<g transform="matrix(1.43 0 0 1.43 245.29 255.12)" id="Layer_1"  >
<line style="stroke: rgb(51,54,58); stroke-width: 3; stroke-dasharray: none; stroke-linecap: round; stroke-dashoffset: 0; stroke-linejoin: round; stroke-miterlimit: 10; fill: none; fill-rule: nonzero; opacity: 1;"  x1="-9.840499999999999" y1="-7.606999999999999" x2="9.840499999999999" y2="7.606999999999999" />
</g>
<g transform="matrix(1.43 0 0 1.43 236.32 217.98)" id="Layer_1"  >
<line style="stroke: rgb(51,54,58); stroke-width: 3; stroke-dasharray: none; stroke-linecap: round; stroke-dashoffset: 0; stroke-linejoin: round; stroke-miterlimit: 10; fill: none; fill-rule: nonzero; opacity: 1;"  x1="-16.5225" y1="0" x2="16.5225" y2="0" />
</g>
<g transform="matrix(1.43 0 0 1.43 149.6 287.89)" id="Layer_1"  >
<line style="stroke: rgb(51,54,58); stroke-width: 3; stroke-dasharray: none; stroke-linecap: round; stroke-dashoffset: 0; stroke-linejoin: round; stroke-miterlimit: 10; fill: none; fill-rule: nonzero; opacity: 1;"  x1="-3.2624999999999993" y1="0" x2="3.2624999999999993" y2="0" />
</g>
<g transform="matrix(1.43 0 0 1.43 186.04 287.89)" id="Layer_1"  >
<line style="stroke: rgb(51,54,58); stroke-width: 3; stroke-dasharray: none; stroke-linecap: round; stroke-dashoffset: 0; stroke-linejoin: round; stroke-miterlimit: 10; fill: none; fill-rule: nonzero; opacity: 1;"  x1="-9.410499999999999" y1="0" x2="9.410499999999999" y2="0" />
</g>
<g transform="matrix(1.43 0 0 1.43 163.52 287.89)" id="Layer_1"  >
<line style="stroke: rgb(51,54,58); stroke-width: 3; stroke-dasharray: none; stroke-linecap: round; stroke-dashoffset: 0; stroke-linejoin: round; stroke-miterlimit: 10; fill: none; fill-rule: nonzero; opacity: 1;"  x1="-0.6090000000000018" y1="0" x2="0.6090000000000018" y2="0" />
</g>
</svg>